# Wavefront Obj file
# 
# verts: 68 uv-s: 172
mtllib Stolb2.mtl

g Object001

v -7.500000 -7.500000 0.000000
v -7.500000 7.500000 0.000000
v 7.500000 7.500000 0.000000
v 7.500000 -7.500000 0.000000
v -1.953900 -1.953900 180.000000
v 1.953900 -1.953900 180.000000
v 1.953900 1.953900 180.000000
v -1.953900 1.953900 180.000000
v 7.500000 -7.500000 54.256599
v -7.500000 -7.500000 54.256599
v 7.500000 7.500000 54.256599
v -7.500000 7.500000 54.256599
v 7.500000 -7.500000 150.000000
v 5.328000 -5.328000 150.000000
v -5.328000 -5.328000 150.000000
v -7.500000 -7.500000 150.000000
v 7.500000 7.500000 150.000000
v 5.328000 5.328000 150.000000
v -7.500000 7.500000 150.000000
v -5.328000 5.328000 150.000000
v 5.328000 -5.328000 155.910599
v -5.328000 -5.328000 155.910599
v 5.328000 5.328000 155.910599
v -5.328000 5.328000 155.910599
v 3.972700 -3.972700 157.655594
v -3.972700 -3.972700 157.655594
v 3.972700 3.972700 157.655594
v -3.972700 3.972700 157.655594
v 5.326300 -5.326300 159.400604
v 7.500000 -7.500000 163.316498
v -7.500000 -7.500000 163.316498
v -5.326300 -5.326300 159.400604
v 5.326300 5.326300 159.400604
v 7.500000 7.500000 163.316498
v -5.326300 5.326300 159.400604
v -7.500000 7.500000 163.316498
v 2.865700 -3.189100 172.030701
v -6.010800 -6.010800 172.030701
v 6.010800 6.010800 172.030701
v -6.010800 6.010800 172.030701
v 7.500000 -7.500000 141.438400
v -7.500000 -7.500000 141.438400
v 7.500000 7.500000 141.438400
v -7.500000 7.500000 141.438400
v 7.500000 -7.500000 137.705093
v 7.500000 -7.500000 140.438400
v -6.156000 -7.500000 140.438400
v -7.500000 -7.500000 137.705093
v 7.500000 7.500000 137.705093
v 7.500000 7.500000 140.438400
v -7.500000 7.500000 137.705093
v -6.156000 7.500000 140.438400
v 7.500000 -7.500000 60.695202
v 6.430300 -6.430300 80.827301
v -6.430300 -6.430300 80.827301
v -7.500000 -7.500000 60.695202
v 7.500000 7.500000 60.695202
v 6.430300 6.430300 80.827301
v -7.500000 7.500000 60.695202
v -6.430300 6.430300 80.827301
v 7.500000 -6.897700 57.475899
v -7.500000 -3.077500 57.475899
v 7.500000 7.500000 57.475899
v -7.500000 7.500000 57.475899
v 7.500000 -7.500000 101.068001
v -7.500000 -7.500000 101.068001
v 7.500000 7.500000 101.068001
v -7.500000 7.500000 101.068001
# 68 positions

vt 0.932600 0.736800
vt 0.963900 0.736800
vt 0.963900 0.768000
vt 0.932600 0.768000
vt 0.028100 0.971900
vt 0.028100 0.980000
vt 0.020000 0.980000
vt 0.020000 0.971900
vt 0.854100 0.120600
vt 0.854100 0.089400
vt 0.967100 0.089400
vt 0.967100 0.120600
vt 0.564800 0.716600
vt 0.533500 0.716600
vt 0.533500 0.603500
vt 0.564800 0.603500
vt 0.846200 0.358200
vt 0.846200 0.389400
vt 0.733200 0.389400
vt 0.733200 0.358200
vt 0.308100 0.685200
vt 0.339300 0.685200
vt 0.339400 0.798300
vt 0.308100 0.798300
vt 0.564800 0.963700
vt 0.560300 0.959200
vt 0.560300 0.937000
vt 0.564800 0.932500
vt 0.533500 0.963700
vt 0.538100 0.959200
vt 0.533500 0.932500
vt 0.538100 0.937000
vt 0.606200 0.821800
vt 0.618500 0.821800
vt 0.618500 0.844000
vt 0.606200 0.844000
vt 0.861700 0.960000
vt 0.861700 0.972300
vt 0.839500 0.972300
vt 0.839500 0.960000
vt 0.169400 0.717000
vt 0.181700 0.717000
vt 0.181700 0.739200
vt 0.169400 0.739200
vt 0.962100 0.305200
vt 0.974400 0.305200
vt 0.974400 0.327400
vt 0.962100 0.327400
vt 0.979000 0.166300
vt 0.974400 0.163500
vt 0.974400 0.147000
vt 0.979000 0.144100
vt 0.858900 0.976900
vt 0.842300 0.976900
vt 0.233500 0.798200
vt 0.238100 0.801000
vt 0.238100 0.817500
vt 0.233500 0.820400
vt 0.979000 0.308000
vt 0.979000 0.324600
vt 0.913300 0.148900
vt 0.922600 0.144100
vt 0.923400 0.175400
vt 0.913900 0.171100
vt 0.281700 0.911200
vt 0.286000 0.920600
vt 0.254800 0.920100
vt 0.259500 0.910800
vt 0.913600 0.202800
vt 0.922900 0.198300
vt 0.922700 0.229600
vt 0.913400 0.225000
vt 0.871800 0.741200
vt 0.881200 0.736800
vt 0.881000 0.768000
vt 0.871700 0.763400
vt 0.908800 0.151800
vt 0.909300 0.168400
vt 0.278900 0.906500
vt 0.262400 0.906300
vt 0.908900 0.205600
vt 0.908800 0.222100
vt 0.867200 0.744000
vt 0.867100 0.760600
vt 0.943100 0.153200
vt 0.941900 0.172600
vt 0.283600 0.939100
vt 0.263400 0.940800
vt 0.941300 0.201600
vt 0.941100 0.226600
vt 0.899600 0.740000
vt 0.899400 0.765100
vt 0.959900 0.155000
vt 0.960000 0.163100
vt 0.274300 0.957400
vt 0.266200 0.957500
vt 0.959900 0.210200
vt 0.959800 0.218300
vt 0.918200 0.748600
vt 0.918100 0.756800
vt 0.834800 0.736800
vt 0.852600 0.736800
vt 0.852600 0.768000
vt 0.834800 0.768000
vt 0.533500 0.421700
vt 0.533500 0.403900
vt 0.564800 0.403900
vt 0.564800 0.421700
vt 0.551400 0.389400
vt 0.533500 0.389400
vt 0.533500 0.358200
vt 0.551400 0.358200
vt 0.870700 0.886200
vt 0.870700 0.904000
vt 0.839500 0.904000
vt 0.839500 0.886200
vt 0.827000 0.736800
vt 0.832700 0.736800
vt 0.832700 0.765200
vt 0.827000 0.768000
vt 0.533500 0.429500
vt 0.533500 0.423800
vt 0.564800 0.423800
vt 0.564800 0.429500
vt 0.559200 0.389400
vt 0.553500 0.386600
vt 0.553500 0.358200
vt 0.559200 0.358200
vt 0.339400 0.972300
vt 0.339400 0.978600
vt 0.308100 0.978600
vt 0.308100 0.972300
vt 0.870700 0.882700
vt 0.839500 0.882700
vt 0.666400 0.736800
vt 0.708400 0.739000
vt 0.708400 0.765800
vt 0.666400 0.768000
vt 0.533500 0.590100
vt 0.535800 0.548100
vt 0.562600 0.548100
vt 0.564800 0.590100
vt 0.719800 0.389400
vt 0.677700 0.387200
vt 0.677700 0.360400
vt 0.719700 0.358200
vt 0.339400 0.811700
vt 0.337100 0.853700
vt 0.310300 0.853700
vt 0.308100 0.811700
vt 0.967400 0.252200
vt 0.974200 0.253200
vt 0.974200 0.285400
vt 0.963000 0.283200
vt 0.533500 0.596800
vt 0.563500 0.596800
vt 0.726500 0.389400
vt 0.726500 0.358200
vt 0.330100 0.805000
vt 0.308100 0.805000
vt 0.464000 0.934000
vt 0.470800 0.934000
vt 0.470700 0.965300
vt 0.459300 0.965900
vt 0.750700 0.736800
vt 0.750700 0.768000
vt 0.533500 0.505900
vt 0.564800 0.505900
vt 0.635500 0.389400
vt 0.635500 0.358200
vt 0.339400 0.895900
vt 0.308100 0.895900
# 172 texture coordinates

vn 0.000000 0.000000 -1.000000
vn 0.000000 0.000000 1.000000
vn 0.000000 -1.000000 0.000000
vn 1.000000 0.000000 0.000000
vn 0.000000 1.000000 0.000000
vn -1.000000 0.000000 0.000000
vn 1.000000 0.000000 0.000000
vn -1.000000 0.000000 0.000000
vn 0.000000 -0.789773 0.613399
vn 0.789773 0.000000 0.613399
vn 0.000000 0.789773 0.613399
vn -0.789773 0.000000 0.613399
vn 0.000000 -0.874327 -0.485336
vn 0.874327 0.000000 -0.485336
vn 0.000000 0.874327 -0.485336
vn -0.874327 0.000000 -0.485336
vn 0.000000 -0.790148 -0.612916
vn 0.790148 0.000000 -0.612916
vn 0.000000 0.790148 -0.612916
vn -0.790148 0.000000 -0.612916
vn 0.110715 -0.936845 0.331758
vn 0.930256 -0.120899 0.346421
vn 0.000000 0.985710 0.168451
vn -0.985710 0.000000 0.168451
vn 0.207455 -0.939917 0.271145
vn 0.940690 -0.225712 0.253292
vn 0.000000 0.891172 0.453665
vn -0.891172 0.000000 0.453665
vn -0.897382 0.000000 0.441254
vn -0.596939 0.000000 -0.802286
vn 0.000000 -0.998591 0.053059
vn 0.998591 0.000000 0.053059
vn 0.000000 0.998591 0.053059
vn -0.998591 0.000000 0.053059
vn -0.099885 -0.784400 0.612160
vn -0.099886 -0.784400 -0.612159
vn 0.000000 -0.998606 -0.052775
vn 0.998606 0.000000 -0.052775
vn 0.000000 0.998606 -0.052775
vn -0.998606 0.000000 -0.052775
# 40 normals

usemtl wire_115115115
f 1/1/1 2/2/1 3/3/1 4/4/1
f 5/5/2 6/6/2 7/7/2 8/8/2
f 1/9/3 4/10/3 9/11/3 10/12/3
f 4/13/4 3/14/4 11/15/4 9/16/4
f 3/17/5 2/18/5 12/19/5 11/20/5
f 2/21/6 1/22/6 10/23/6 12/24/6
f 13/25/2 14/26/2 15/27/2 16/28/2
f 17/29/2 18/30/2 14/26/2 13/25/2
f 19/31/2 20/32/2 18/30/2 17/29/2
f 16/28/2 15/27/2 20/32/2 19/31/2
f 14/33/3 21/34/3 22/35/3 15/36/3
f 18/37/7 23/38/7 21/39/7 14/40/7
f 20/41/5 24/42/5 23/43/5 18/44/5
f 15/45/8 22/46/8 24/47/8 20/48/8
f 21/49/9 25/50/9 26/51/9 22/52/9
f 23/38/10 27/53/10 25/54/10 21/39/10
f 24/55/11 28/56/11 27/57/11 23/58/11
f 22/46/12 26/59/12 28/60/12 24/47/12
f 29/61/13 30/62/13 31/63/13 32/64/13
f 33/65/14 34/66/14 30/67/14 29/68/14
f 35/69/15 36/70/15 34/71/15 33/72/15
f 32/73/16 31/74/16 36/75/16 35/76/16
f 25/77/17 29/61/17 32/64/17 26/78/17
f 27/79/18 33/65/18 29/68/18 25/80/18
f 28/81/19 35/69/19 33/72/19 27/82/19
f 26/83/20 32/73/20 35/76/20 28/84/20
f 30/62/21 37/85/21 38/86/21 31/63/21
f 34/66/22 39/87/22 37/88/22 30/67/22
f 36/70/23 40/89/23 39/90/23 34/71/23
f 31/74/24 38/91/24 40/92/24 36/75/24
f 37/85/25 6/93/25 5/94/25 38/86/25
f 39/87/26 7/95/26 6/96/26 37/88/26
f 40/89/27 8/97/27 7/98/27 39/90/27
f 38/91/28 5/99/28 8/100/28 40/92/28
f 41/101/3 13/102/3 16/103/3 42/104/3
f 43/105/4 17/106/4 13/107/4 41/108/4
f 44/109/5 19/110/5 17/111/5 43/112/5
f 42/113/6 16/114/6 19/115/6 44/116/6
f 45/117/3 46/118/3 47/119/3 48/120/3
f 49/121/7 50/122/7 46/123/7 45/124/7
f 51/125/5 52/126/5 50/127/5 49/128/5
f 48/129/29 47/130/29 52/131/29 51/132/29
f 46/118/3 41/101/3 42/104/3 47/119/3
f 50/122/7 43/105/4 41/108/4 46/123/7
f 52/126/5 44/109/5 43/112/5 50/127/5
f 47/133/30 42/113/30 44/116/30 52/134/30
f 53/135/31 54/136/31 55/137/31 56/138/31
f 57/139/32 58/140/32 54/141/32 53/142/32
f 59/143/33 60/144/33 58/145/33 57/146/33
f 56/147/34 55/148/34 60/149/34 59/150/34
f 9/151/35 61/152/35 62/153/35 10/154/35
f 11/15/4 63/155/7 61/156/7 9/16/4
f 12/19/5 64/157/5 63/158/5 11/20/5
f 10/23/6 62/159/6 64/160/6 12/24/6
f 61/161/36 53/162/36 56/163/36 62/164/36
f 63/155/7 57/139/4 53/142/4 61/156/7
f 64/157/5 59/143/5 57/146/5 63/158/5
f 62/159/6 56/147/6 59/150/6 64/160/6
f 65/165/3 45/117/3 48/120/3 66/166/3
f 67/167/4 49/121/7 45/124/7 65/168/4
f 68/169/5 51/125/5 49/128/5 67/170/5
f 66/171/6 48/129/6 51/132/6 68/172/6
f 54/136/37 65/165/37 66/166/37 55/137/37
f 58/140/38 67/167/38 65/168/38 54/141/38
f 60/144/39 68/169/39 67/170/39 58/145/39
f 55/148/40 66/171/40 68/172/40 60/149/40

# 66 faces
